<svg id="Flat" height="512" viewBox="0 0 512 512" width="512" xmlns="http://www.w3.org/2000/svg"><path d="m88 456s8-104-64-176c0 0 168 56 168 176z" fill="#6a9c72"/><path d="m152 456s-32-200-104-272c0 0 208 104 208 272z" fill="#88c791"/><path d="m208 456s-16-240-120-400c0 0 192 40 232 400z" fill="#75ab7d"/><path d="m304 456s16-240 120-400c0 0-192 40-232 400z" fill="#88c791"/><path d="m360 456s32-200 104-272c0 0-208 104-208 272z" fill="#75ab7d"/><path d="m424 456s-8-104 64-176c0 0-168 56-168 176z" fill="#6a9c72"/></svg>