<svg
				width="219"
				height="81"
				viewBox="0 0 219 81"
				fill="none"
				xmlns="http://www.w3.org/2000/svg"
			>
				<path
					fill-rule="evenodd"
					clip-rule="evenodd"
					d="M182 48.59C183.802 51.0516 186.249 52.9686 189.07 54.13C192.286 55.4636 195.739 56.1271 199.22 56.08C202.759 56.17 206.268 55.4195 209.46 53.89C212.154 52.5862 214.422 50.5435 216 48C217.469 45.5912 218.237 42.8211 218.22 40C218.408 37.0832 217.593 34.1897 215.91 31.8C214.416 29.8173 212.459 28.2311 210.21 27.18C207.44 25.9442 204.582 24.9147 201.66 24.1C199.073 23.3533 197.073 22.6867 195.66 22.1C194.336 21.5716 193.129 20.7866 192.11 19.79C191.642 19.3215 191.274 18.7623 191.03 18.1467C190.786 17.531 190.67 16.872 190.69 16.21C190.632 15.335 190.772 14.4581 191.099 13.6444C191.426 12.8307 191.932 12.1012 192.58 11.51C193.994 10.3797 195.772 9.8037 197.58 9.89C199.67 9.78933 201.727 10.4304 203.39 11.7C204.09 12.2474 204.663 12.9405 205.069 13.7314C205.475 14.5222 205.704 15.3918 205.74 16.28H217.6C217.523 14.0951 216.969 11.9534 215.978 10.0049C214.986 8.05648 213.581 6.34829 211.86 4.99999C208.393 2.33333 203.89 0.99999 198.35 0.99999C194.991 0.948262 191.658 1.59173 188.56 2.89C185.851 4.01247 183.524 5.8948 181.86 8.30999C180.242 10.7783 179.412 13.6796 179.48 16.63C179.328 19.5239 180.156 22.3844 181.83 24.75C183.3 26.7063 185.231 28.2692 187.45 29.3C190.214 30.4964 193.057 31.4988 195.96 32.3C197.993 32.8629 199.996 33.5305 201.96 34.3C203.341 34.8371 204.589 35.666 205.62 36.73C206.607 37.7916 207.132 39.2015 207.08 40.65C207.108 41.5529 206.928 42.4502 206.553 43.2722C206.179 44.0943 205.62 44.8189 204.92 45.39C203.227 46.6831 201.126 47.3254 199 47.2C196.875 47.3309 194.78 46.6399 193.15 45.27C192.434 44.5956 191.857 43.7865 191.454 42.8891C191.051 41.9917 190.828 41.0235 190.8 40.04H179.3C179.281 43.1026 180.225 46.0937 182 48.59ZM60.14 55.52V1.76998H49.36V55.52H60.14ZM15.81 69.35L12.69 80.52H10.05L7.95001 72.52L5.76001 80.52H3.13L0.130005 69.34H2.53003L4.53003 78.01L6.81 69.34H9.26001L11.41 78L13.41 69.38L15.81 69.35ZM30.54 74V71.16H34.78V69.33H28.3V80.6H34.78V78.77H30.54V75.77H34.3V74H30.54ZM55.74 75.73C56.1434 76.227 56.3593 76.85 56.35 77.49C56.3663 78.0515 56.2115 78.6048 55.9061 79.0763C55.6006 79.5478 55.1591 79.9152 54.64 80.13C54.0107 80.4072 53.3274 80.5405 52.64 80.52H47.85V69.35H52.46C53.1457 69.3259 53.8283 69.4522 54.46 69.72C54.9621 69.9167 55.3916 70.263 55.6904 70.712C55.9891 71.1609 56.1426 71.6909 56.13 72.23C56.1512 72.8172 55.9673 73.3935 55.61 73.86C55.2594 74.3075 54.7764 74.633 54.23 74.79C54.8315 74.9076 55.3689 75.2421 55.74 75.73ZM50.09 74H52.09C52.5297 74.0295 52.9656 73.9019 53.32 73.64C53.4626 73.5161 53.576 73.3622 53.652 73.1893C53.7281 73.0164 53.765 72.8288 53.76 72.64C53.7629 72.4515 53.7252 72.2645 53.6492 72.0919C53.5733 71.9194 53.461 71.7652 53.32 71.64C52.9656 71.3781 52.5297 71.2505 52.09 71.28H50.09V74ZM53.62 78.35C53.775 78.2156 53.897 78.0475 53.9768 77.8585C54.0566 77.6695 54.0919 77.4648 54.08 77.26C54.0911 77.0475 54.0536 76.8354 53.9705 76.6396C53.8873 76.4438 53.7606 76.2695 53.6 76.13C53.228 75.8453 52.7679 75.7002 52.3 75.72H50.09V78.72H52.35C52.8085 78.7378 53.2585 78.5926 53.62 78.31V78.35ZM93.06 72C92.5925 71.1395 91.8739 70.4419 91 70C90.0341 69.5368 88.9706 69.3138 87.9 69.35H84V80.62H87.9C88.9739 80.6437 90.0375 80.407 91 79.93C91.8706 79.4835 92.588 78.787 93.06 77.93C93.5641 77.0375 93.8165 76.0247 93.79 75C93.8242 73.9522 93.5718 72.9149 93.06 72ZM91.3175 76.3628C91.1456 76.8269 90.881 77.2513 90.54 77.61L90.57 77.65C90.2001 77.9748 89.7687 78.2218 89.3015 78.3764C88.8342 78.531 88.3406 78.59 87.85 78.55H86.27V71.18H87.82C88.3179 71.1491 88.8168 71.2221 89.285 71.3942C89.7533 71.5664 90.1807 71.8339 90.54 72.18C90.8796 72.5459 91.1429 72.9757 91.3146 73.4444C91.4862 73.9131 91.5629 74.4114 91.54 74.91C91.5651 75.4043 91.4894 75.8986 91.3175 76.3628ZM108.78 71.16V74H112.54V75.77H108.78V78.77H113V80.6H106.52V69.33H113V71.16H108.78ZM126.37 79.08C126.747 79.5933 127.259 79.9915 127.85 80.23C128.517 80.499 129.231 80.6316 129.95 80.62C130.687 80.6403 131.417 80.4825 132.08 80.16C132.639 79.8894 133.111 79.4665 133.44 78.94C133.746 78.437 133.905 77.8586 133.9 77.27C133.929 76.671 133.757 76.0794 133.41 75.59C133.098 75.1674 132.69 74.8248 132.22 74.59C131.644 74.3394 131.053 74.1256 130.45 73.95C129.91 73.79 129.5 73.65 129.21 73.53C128.933 73.4228 128.681 73.2594 128.47 73.05C128.372 72.9539 128.295 72.8386 128.243 72.7112C128.191 72.5839 128.167 72.4473 128.17 72.31C128.153 72.1236 128.181 71.9359 128.25 71.7621C128.32 71.5884 128.429 71.4335 128.57 71.31C128.854 71.0846 129.207 70.9644 129.57 70.97C130.006 70.9484 130.435 71.0832 130.78 71.35C130.933 71.468 131.057 71.6195 131.141 71.7929C131.199 71.9104 131.238 72.0357 131.257 72.1644C131.266 72.2257 131.27 72.2877 131.27 72.35H133.73C133.716 71.8965 133.602 71.4517 133.396 71.0473C133.19 70.6429 132.898 70.2887 132.54 70.01C131.726 69.4191 130.735 69.1228 129.73 69.17C129.044 69.1613 128.363 69.2941 127.73 69.56C127.164 69.7931 126.677 70.1856 126.33 70.69C125.994 71.203 125.823 71.8068 125.84 72.42C125.808 73.0194 125.98 73.612 126.33 74.1C126.633 74.5065 127.032 74.8327 127.49 75.05C128.065 75.3012 128.656 75.5117 129.26 75.68C129.79 75.83 130.21 75.97 130.52 76.09C130.806 76.2002 131.065 76.3708 131.28 76.59C131.482 76.8144 131.59 77.1082 131.58 77.41C131.588 77.6002 131.552 77.7898 131.474 77.9634C131.396 78.137 131.278 78.29 131.13 78.41C130.778 78.679 130.342 78.8138 129.9 78.79C129.461 78.8106 129.03 78.6681 128.69 78.39C128.392 78.1045 128.22 77.7125 128.21 77.3H125.81C125.803 77.9378 125.999 78.5613 126.37 79.08ZM149.12 69.35V80.52H146.88V69.35H149.12ZM169.14 71.64C169.57 71.8926 169.917 72.2642 170.14 72.71L172.69 72.77C172.375 71.7077 171.695 70.7906 170.77 70.18C169.792 69.5542 168.65 69.2339 167.49 69.26C166.473 69.2499 165.471 69.5012 164.58 69.99C163.743 70.4607 163.051 71.1526 162.58 71.99C162.065 72.9044 161.806 73.9408 161.83 74.99C161.813 76.0193 162.072 77.0344 162.58 77.93C163.049 78.7683 163.742 79.4605 164.58 79.93C165.473 80.4234 166.48 80.675 167.5 80.66C168.402 80.6736 169.295 80.4677 170.1 80.06C170.848 79.685 171.499 79.1406 172 78.47C172.494 77.8361 172.836 77.0971 173 76.31V74.31H166.98V76.02H170.82C170.69 76.7566 170.312 77.4267 169.75 77.92C169.154 78.3909 168.409 78.6322 167.65 78.6C167.014 78.6139 166.386 78.4585 165.83 78.15C165.309 77.849 164.886 77.4047 164.61 76.87C164.317 76.267 164.165 75.6053 164.165 74.935C164.165 74.2646 164.317 73.603 164.61 73C164.874 72.4633 165.291 72.0175 165.81 71.72C166.345 71.4136 166.953 71.2581 167.57 71.27C168.116 71.2572 168.657 71.3846 169.14 71.64ZM195.25 80.52H193L187.93 72.85V80.52H185.69V69.33H187.93L193 77V69.33H195.25V80.52ZM208.76 79.08C209.143 79.5911 209.658 79.9886 210.25 80.23C210.927 80.5146 211.656 80.6576 212.39 80.65C213.127 80.6702 213.857 80.5125 214.52 80.19C215.079 79.9194 215.551 79.4965 215.88 78.97C216.186 78.467 216.345 77.8886 216.34 77.3C216.371 76.6992 216.195 76.106 215.84 75.62C215.531 75.1979 215.127 74.8552 214.66 74.62C214.081 74.3679 213.487 74.1541 212.88 73.98C212.35 73.82 211.94 73.68 211.64 73.56C211.367 73.4502 211.119 73.287 210.91 73.08C210.812 72.9839 210.734 72.8686 210.683 72.7412C210.631 72.6139 210.606 72.4773 210.61 72.34C210.594 72.1546 210.621 71.9681 210.689 71.7948C210.757 71.6215 210.863 71.4659 211 71.34C211.286 71.1174 211.638 70.9976 212 71C212.441 70.9605 212.881 71.0812 213.24 71.34C213.393 71.458 213.516 71.6095 213.601 71.7829C213.686 71.9563 213.73 72.1469 213.73 72.34H216.19C216.176 71.8865 216.062 71.4418 215.856 71.0373C215.65 70.6329 215.358 70.2787 215 70C214.166 69.3971 213.147 69.1036 212.12 69.17C211.434 69.1649 210.754 69.2976 210.12 69.56C209.558 69.7962 209.076 70.1883 208.73 70.69C208.394 71.203 208.223 71.8068 208.24 72.42C208.209 73.0177 208.378 73.6087 208.72 74.1C209.029 74.5048 209.43 74.8303 209.89 75.05C210.464 75.3012 211.056 75.5117 211.66 75.68C212.19 75.83 212.61 75.97 212.92 76.09C213.205 76.2029 213.464 76.3731 213.68 76.59C213.882 76.8144 213.99 77.1082 213.98 77.41C213.988 77.6002 213.952 77.7898 213.874 77.9634C213.796 78.137 213.678 78.29 213.53 78.41C213.178 78.679 212.742 78.8138 212.3 78.79C211.861 78.8106 211.43 78.6681 211.09 78.39C210.793 78.103 210.617 77.7127 210.6 77.3H208.21C208.205 77.9359 208.397 78.5577 208.76 79.08ZM91.56 40.73L78.08 1.76998H66.53L86.24 55.52L91.56 40.73ZM92.86 44.51L107.57 1.76998H119.04L99.33 55.52H89.06L92.86 44.5V44.51ZM27.33 33.72C30.9885 32.9064 34.2386 30.8188 36.5 27.83C38.5303 25.051 39.6104 21.6915 39.58 18.25C39.6205 15.3151 38.8599 12.4248 37.38 9.89C35.8124 7.32335 33.5239 5.27489 30.8 3.99999C27.478 2.441 23.8384 1.67748 20.17 1.76998H0V23.94H10.78V10.7H19.78C22.7 10.7 24.89 11.38 26.32 12.7C27.0637 13.4509 27.6404 14.3503 28.0126 15.3394C28.3848 16.3286 28.5441 17.3851 28.48 18.44C28.5425 19.5174 28.383 20.596 28.0114 21.6092C27.6399 22.6224 27.0641 23.5485 26.32 24.33C24.89 25.74 22.7 26.45 19.78 26.45H0V55.45H10.78V34.45H15.86L27.72 55.45H40.19L27.33 33.72ZM141.53 1.68999H154.08L173.4 55.52H162.01L158.47 45.27H137.06L133.52 55.52H122.2L128.97 36.65H139.99H145.07H155.54L147.76 14.17L141.02 33.66H130.05L141.53 1.68999Z"
					fill="black"
				/>
			</svg>