<?xml version="1.0" standalone="no"?>
<!DOCTYPE svg PUBLIC "-//W3C//DTD SVG 20010904//EN"
 "http://www.w3.org/TR/2001/REC-SVG-20010904/DTD/svg10.dtd">
<svg version="1.0" xmlns="http://www.w3.org/2000/svg"
 width="218.000000pt" height="218.000000pt" viewBox="0 0 218.000000 218.000000"
 preserveAspectRatio="xMidYMid meet">
<metadata>
Created by potrace 1.14, written by Peter Selinger 2001-2017
</metadata>
<g transform="translate(0.000000,218.000000) scale(0.100000,-0.100000)"
fill="#000000" stroke="none">
<path d="M10 1482 c-6 -2 -10 -49 -10 -113 l0 -109 55 0 55 0 0 65 c0 45 4 65
13 66 29 2 103 -2 120 -7 24 -7 45 -58 39 -90 -9 -46 -44 -58 -166 -59 l-111
0 -3 -146 -3 -147 53 2 53 1 3 103 c1 56 6 102 10 103 4 0 14 2 23 4 11 2 33
-29 73 -101 31 -56 65 -105 74 -107 27 -7 92 -8 102 -2 5 3 -19 51 -52 107
-56 93 -60 103 -44 112 45 27 70 52 86 89 40 90 -8 192 -103 218 -37 10 -245
18 -267 11z"/>
<path d="M517 1482 l-28 -3 2 -270 2 -269 53 0 54 0 0 273 0 272 -27 0 c-16 0
-41 -1 -56 -3z"/>
<path d="M673 1477 c-2 -4 7 -38 21 -75 13 -37 55 -150 91 -252 37 -102 70
-188 74 -192 4 -4 18 25 31 65 l25 72 -62 178 c-35 98 -63 184 -63 192 0 15
-108 26 -117 12z"/>
<path d="M1068 1460 c-13 -34 -178 -513 -178 -518 0 -2 23 -2 52 0 l51 3 97
265 c54 146 96 267 95 268 -2 2 -27 5 -55 5 -47 2 -53 0 -62 -23z"/>
<path d="M1415 1479 c-5 -7 -115 -310 -115 -315 0 -2 24 -4 54 -4 l53 0 16 43
c9 23 23 66 33 95 9 29 18 51 20 49 5 -5 74 -200 74 -209 0 -5 -57 -8 -126 -7
-69 1 -130 -3 -135 -8 -5 -5 -20 -40 -33 -78 -13 -39 -27 -78 -31 -88 -7 -16
-2 -18 51 -15 l59 3 18 50 18 51 106 -1 106 0 17 -50 17 -50 56 -3 c31 -2 57
-1 57 2 0 3 -12 38 -26 78 -14 40 -55 154 -90 253 -35 99 -68 187 -72 194 -6
10 -27 15 -66 15 -32 1 -59 -2 -61 -5z"/>
<path d="M1909 1481 c-93 -29 -140 -121 -104 -207 17 -42 55 -66 153 -99 59
-19 88 -34 99 -52 24 -36 8 -75 -37 -89 -46 -15 -82 -4 -100 32 -14 28 -20 30
-74 33 l-58 3 7 -34 c24 -111 173 -166 290 -107 60 30 86 63 92 121 10 89 -29
131 -167 178 -103 35 -128 72 -84 121 28 31 107 18 121 -18 4 -10 10 -20 15
-23 6 -5 70 -5 101 -1 21 3 3 54 -30 89 -53 55 -144 77 -224 53z"/>
<path d="M4 792 c3 -9 10 -36 16 -59 13 -50 35 -56 45 -13 4 17 10 30 15 30 4
0 10 -13 14 -30 8 -44 32 -37 45 14 6 24 13 51 17 60 4 12 2 15 -9 10 -8 -3
-20 -22 -25 -42 l-9 -37 -10 35 c-12 44 -34 45 -45 1 -11 -42 -24 -30 -27 25
-1 7 -8 15 -17 18 -11 4 -14 1 -10 -12z"/>
<path d="M291 801 c-5 -4 -9 -30 -8 -59 l1 -52 33 0 c18 0 33 5 33 10 0 6 -9
10 -19 10 -28 0 -37 20 -12 27 12 3 21 9 21 13 0 4 -9 10 -21 13 -23 6 -17 29
6 25 8 -2 13 1 12 7 -2 11 -32 14 -46 6z"/>
<path d="M487 796 c-7 -7 -12 -26 -11 -42 1 -16 3 -37 3 -47 1 -15 8 -18 39
-15 l37 3 0 49 c0 46 -2 50 -28 57 -18 5 -32 3 -40 -5z m53 -31 c0 -3 -9 -5
-20 -5 -11 0 -20 7 -20 15 0 13 4 14 20 5 11 -6 20 -13 20 -15z m-2 -42 c2 -8
-5 -13 -17 -13 -12 0 -21 6 -21 16 0 18 31 15 38 -3z"/>
<path d="M852 802 c-7 -2 -12 -24 -12 -58 0 -53 0 -54 30 -54 31 0 70 30 70
53 0 36 -52 71 -88 59z m60 -58 c-4 -20 -20 -34 -39 -34 -14 0 -17 37 -7 65 6
14 9 14 28 1 12 -8 20 -22 18 -32z"/>
<path d="M1073 801 c-5 -3 -8 -30 -9 -58 l0 -53 33 0 c18 0 33 5 33 10 0 6 -9
10 -20 10 -11 0 -20 7 -20 15 0 8 6 15 14 15 8 0 18 5 22 12 5 7 0 9 -14 6
-13 -4 -23 0 -26 8 -3 8 -1 15 4 15 6 1 15 2 20 3 6 0 9 5 8 11 -3 10 -33 15
-45 6z"/>
<path d="M1276 798 c-25 -14 -20 -47 9 -54 14 -3 25 -12 25 -20 0 -17 -22 -18
-38 -2 -9 9 -12 8 -12 -5 0 -23 47 -34 66 -15 19 19 10 42 -22 57 -14 6 -22
16 -18 22 4 8 9 8 17 0 15 -15 27 -14 27 3 0 18 -32 26 -54 14z"/>
<path d="M1468 793 c-5 -29 4 -103 13 -103 12 0 12 107 0 115 -5 3 -11 -2 -13
-12z"/>
<path d="M1647 794 c-21 -11 -27 -22 -27 -46 0 -57 66 -79 96 -33 19 29 16 35
-20 39 -18 2 -26 -2 -26 -11 0 -10 6 -13 16 -9 10 4 14 1 12 -6 -6 -18 -39
-16 -51 3 -6 9 -7 24 -3 34 5 14 14 16 42 12 23 -4 34 -2 32 5 -7 20 -43 26
-71 12z"/>
<path d="M1858 799 c-10 -28 -2 -103 11 -107 8 -3 12 4 11 19 -4 49 1 53 25
16 14 -20 30 -37 35 -37 6 0 10 27 10 61 0 37 -4 58 -10 54 -5 -3 -10 -21 -10
-38 l0 -32 -33 39 c-24 28 -35 35 -39 25z"/>
<path d="M2089 794 c-16 -19 -4 -43 27 -55 19 -7 24 -13 17 -20 -8 -8 -17 -7
-32 0 -24 13 -28 0 -6 -19 8 -7 25 -10 40 -6 35 9 33 42 -5 61 -17 9 -28 21
-24 26 4 7 10 7 17 0 16 -16 37 -14 31 3 -7 19 -52 26 -65 10z"/>
</g>
</svg>
